<svg width="159px" height="33px" viewBox="0 0 159 33" version="1.1" xmlns="http://www.w3.org/2000/svg" xmlns:xlink="http://www.w3.org/1999/xlink">
    <g id="Page-1" stroke="none" stroke-width="1" fill="none" fill-rule="evenodd">
        <g id="logo_kbk_simple" fill="#E0210F" fill-rule="nonzero">
            <path d="M0,0.8713716 C0,0.5585144 0.245805405,0.2953716 0.587010811,0.2953716 L3.4386973,0.2953716 C3.75497838,0.2953716 4.02484865,0.5585144 4.02484865,0.8713716 L4.02484865,7.2030859 L9.43858378,0.5345144 C9.53484324,0.4153716 9.75400541,0.2953716 9.90011351,0.2953716 L12.9735405,0.2953716 C13.4367892,0.2953716 13.6791568,0.825943 13.4110054,1.1842287 L7.70591351,8.235943 L13.9223838,16.2262287 C14.1922541,16.5888001 13.9223838,17.1168001 13.4599946,17.1168001 L10.0943514,17.1168001 C9.92503784,17.1168001 9.70587568,17.0208001 9.65602703,16.947943 L4.02484865,9.3896573 L4.02484865,16.5648001 C4.02484865,16.8776573 3.75497838,17.1408001 3.4386973,17.1408001 L0.587010811,17.1408001 C0.245805405,17.1408001 0,16.8776573 0,16.5648001 L0,0.8713716 Z" id="Fill-1"></path>
            <path d="M17.9193859,0.7516287 C17.9193859,0.5099144 18.1144832,0.2956287 18.3843535,0.2956287 L28.4769859,0.2956287 C28.7468562,0.2956287 28.9410941,0.5099144 28.9410941,0.7516287 L28.9410941,3.3762001 C28.9410941,3.6144859 28.7468562,3.8330573 28.4769859,3.8330573 L21.7250724,3.8330573 L21.7250724,6.8150573 L27.2831968,6.8150573 C27.5272832,6.8150573 27.7464454,7.0327716 27.7464454,7.275343 L27.7464454,9.8990573 C27.7464454,10.1630573 27.5272832,10.353343 27.2831968,10.353343 L21.7250724,10.353343 L21.7250724,13.6027716 L28.4769859,13.6027716 C28.7468562,13.6027716 28.9410941,13.8204859 28.9410941,14.0596287 L28.9410941,16.683343 C28.9410941,16.9259144 28.7468562,17.1410573 28.4769859,17.1410573 L18.3843535,17.1410573 C18.1144832,17.1410573 17.9193859,16.9259144 17.9193859,16.683343 L17.9193859,0.7516287 Z" id="Fill-3"></path>
            <path d="M37.9185778,3.8328859 L34.4334697,3.8328859 C34.1644589,3.8328859 33.9685022,3.6143144 33.9685022,3.3760287 L33.9685022,0.7514573 C33.9685022,0.509743 34.1644589,0.2954573 34.4334697,0.2954573 L45.2600805,0.2954573 C45.5282319,0.2954573 45.7233292,0.509743 45.7233292,0.7514573 L45.7233292,3.3760287 C45.7233292,3.6143144 45.5282319,3.8328859 45.2600805,3.8328859 L41.7732535,3.8328859 L41.7732535,16.6831716 C41.7732535,16.925743 41.5532319,17.1408859 41.3082859,17.1408859 L38.3826859,17.1408859 C38.1394589,17.1408859 37.9185778,16.925743 37.9185778,16.6831716 L37.9185778,3.8328859 Z" id="Fill-5"></path>
            <path d="M54.3339957,3.8328859 L50.8480281,3.8328859 C50.5790173,3.8328859 50.3847795,3.6143144 50.3847795,3.3760287 L50.3847795,0.7514573 C50.3847795,0.509743 50.5790173,0.2954573 50.8480281,0.2954573 L61.6746389,0.2954573 C61.9419308,0.2954573 62.1378876,0.509743 62.1378876,0.7514573 L62.1378876,3.3760287 C62.1378876,3.6143144 61.9419308,3.8328859 61.6746389,3.8328859 L58.1878119,3.8328859 L58.1878119,16.6831716 C58.1878119,16.925743 57.9677903,17.1408859 57.7228443,17.1408859 L54.7972443,17.1408859 C54.5540173,17.1408859 54.3339957,16.925743 54.3339957,16.6831716 L54.3339957,3.8328859 Z" id="Fill-7"></path>
            <path d="M67.6278568,0.7516287 C67.6278568,0.5099144 67.824673,0.2956287 68.0911054,0.2956287 L70.9935,0.2956287 C71.236727,0.2956287 71.4567486,0.5099144 71.4567486,0.7516287 L71.4567486,13.6027716 L77.2606784,13.6027716 C77.5296892,13.6027716 77.723927,13.8204859 77.723927,14.0596287 L77.723927,16.683343 C77.723927,16.9259144 77.5296892,17.1410573 77.2606784,17.1410573 L68.0911054,17.1410573 C67.824673,17.1410573 67.6278568,16.9259144 67.6278568,16.683343 L67.6278568,0.7516287 Z" id="Fill-9"></path>
            <path d="M83.5790805,0.7516287 C83.5790805,0.5099144 83.7758968,0.2956287 84.0431886,0.2956287 L94.1383995,0.2956287 C94.4065508,0.2956287 94.6016481,0.5099144 94.6016481,0.7516287 L94.6016481,3.3762001 C94.6016481,3.6144859 94.4065508,3.8330573 94.1383995,3.8330573 L87.3839076,3.8330573 L87.3839076,6.8150573 L92.9446103,6.8150573 C93.1869778,6.8150573 93.4069995,7.0327716 93.4069995,7.275343 L93.4069995,9.8990573 C93.4069995,10.1630573 93.1869778,10.353343 92.9446103,10.353343 L87.3839076,10.353343 L87.3839076,13.6027716 L94.1383995,13.6027716 C94.4065508,13.6027716 94.6016481,13.8204859 94.6016481,14.0596287 L94.6016481,16.683343 C94.6016481,16.9259144 94.4065508,17.1410573 94.1383995,17.1410573 L84.0431886,17.1410573 C83.7758968,17.1410573 83.5790805,16.9259144 83.5790805,16.683343 L83.5790805,0.7516287 Z" id="Fill-11"></path>
            <path d="M99.5932168,0.7516287 C99.5932168,0.5099144 99.7891735,0.2956287 100.056465,0.2956287 L105.737492,0.2956287 C108.614963,0.2956287 110.979336,2.2430573 110.979336,4.7690573 C110.979336,6.6247716 109.297374,7.9722001 108.151714,8.5739144 C109.443482,9.105343 111.419379,10.2822001 111.419379,12.495343 C111.419379,15.1927716 109.004298,17.1410573 106.103622,17.1410573 L100.056465,17.1410573 C99.7891735,17.1410573 99.5932168,16.9259144 99.5932168,16.683343 L99.5932168,0.7516287 Z M105.297449,7.1279144 C106.226525,7.1279144 107.006055,6.3616287 107.006055,5.397343 C107.006055,4.4339144 106.226525,3.759343 105.297449,3.759343 L103.396325,3.759343 L103.396325,7.1279144 L105.297449,7.1279144 Z M105.61459,13.7004859 C106.56773,13.7004859 107.371325,12.9282001 107.371325,11.943343 C107.371325,10.9799144 106.323644,10.2582001 105.370503,10.2582001 L103.396325,10.2582001 L103.396325,13.7004859 L105.61459,13.7004859 Z" id="Fill-13"></path>
            <path d="M116.410604,0.7516287 C116.410604,0.5099144 116.606561,0.2956287 116.873852,0.2956287 L126.969063,0.2956287 C127.237215,0.2956287 127.430593,0.5099144 127.430593,0.7516287 L127.430593,3.3762001 C127.430593,3.6144859 127.237215,3.8330573 126.969063,3.8330573 L120.214571,3.8330573 L120.214571,6.8150573 L125.773555,6.8150573 C126.016782,6.8150573 126.237663,7.0327716 126.237663,7.275343 L126.237663,9.8990573 C126.237663,10.1630573 126.016782,10.353343 125.773555,10.353343 L120.214571,10.353343 L120.214571,13.6027716 L126.969063,13.6027716 C127.237215,13.6027716 127.430593,13.8204859 127.430593,14.0596287 L127.430593,16.683343 C127.430593,16.9259144 127.237215,17.1410573 126.969063,17.1410573 L116.873852,17.1410573 C116.606561,17.1410573 116.410604,16.9259144 116.410604,16.683343 L116.410604,0.7516287 Z" id="Fill-15"></path>
            <path d="M133.288411,0.7516287 C133.288411,0.5099144 133.484368,0.2956287 133.752519,0.2956287 L136.654914,0.2956287 C136.897281,0.2956287 137.116443,0.5099144 137.116443,0.7516287 L137.116443,13.6027716 L142.920373,13.6027716 C143.190243,13.6027716 143.383622,13.8204859 143.383622,14.0596287 L143.383622,16.683343 C143.383622,16.9259144 143.190243,17.1410573 142.920373,17.1410573 L133.752519,17.1410573 C133.484368,17.1410573 133.288411,16.9259144 133.288411,16.683343 L133.288411,0.7516287 Z" id="Fill-17"></path>
            <path d="M148.646178,0.7516287 C148.646178,0.5099144 148.842135,0.2956287 149.110286,0.2956287 L152.012681,0.2956287 C152.255908,0.2956287 152.47421,0.5099144 152.47421,0.7516287 L152.47421,13.6027716 L158.27814,13.6027716 C158.54801,13.6027716 158.741389,13.8204859 158.741389,14.0596287 L158.741389,16.683343 C158.741389,16.9259144 158.54801,17.1410573 158.27814,17.1410573 L149.110286,17.1410573 C148.842135,17.1410573 148.646178,16.9259144 148.646178,16.683343 L148.646178,0.7516287 Z" id="Fill-19"></path>
            <path d="M48.3177795,23.6299716 C48.3177795,23.4679716 48.44412,23.3291144 48.6220281,23.3291144 L50.1037362,23.3291144 C50.2687524,23.3291144 50.4071254,23.4679716 50.4071254,23.6299716 L50.4071254,26.914543 L53.2166984,23.4534001 C53.2674065,23.3916859 53.384293,23.3291144 53.457347,23.3291144 L55.0525038,23.3291144 C55.2940119,23.3291144 55.419493,23.6034001 55.2819795,23.7936859 L52.3185632,27.4536859 L55.546693,31.5996859 C55.6867849,31.7899716 55.546693,32.0634001 55.3077632,32.0634001 L53.5596227,32.0634001 C53.4719578,32.0634001 53.3567903,32.0136859 53.3318659,31.9768287 L50.4071254,28.0519716 L50.4071254,31.7771144 C50.4071254,31.9391144 50.2687524,32.0754001 50.1037362,32.0754001 L48.6220281,32.0754001 C48.44412,32.0754001 48.3177795,31.9391144 48.3177795,31.7771144 L48.3177795,23.6299716 Z" id="Fill-22"></path>
            <path d="M58.421413,23.5672287 C58.421413,23.4403716 58.5348616,23.3298001 58.6620616,23.3298001 L60.1807265,23.3298001 C60.3062076,23.3298001 60.4205157,23.4403716 60.4205157,23.5672287 L60.4205157,31.8386573 C60.4205157,31.9646573 60.3062076,32.0752287 60.1807265,32.0752287 L58.6620616,32.0752287 C58.5348616,32.0752287 58.421413,31.9646573 58.421413,31.8386573 L58.421413,23.5672287 Z" id="Fill-24"></path>
            <path d="M65.2811886,25.164343 L63.4703076,25.164343 C63.3319346,25.164343 63.2305184,25.0546287 63.2305184,24.9286287 L63.2305184,23.5674859 C63.2305184,23.4397716 63.3319346,23.3292001 63.4703076,23.3292001 L69.0911724,23.3292001 C69.2329832,23.3292001 69.3318211,23.4397716 69.3318211,23.5674859 L69.3318211,24.9286287 C69.3318211,25.0546287 69.2329832,25.164343 69.0911724,25.164343 L67.2820103,25.164343 L67.2820103,31.8389144 C67.2820103,31.9649144 67.1659832,32.0754859 67.0405022,32.0754859 L65.5218373,32.0754859 C65.3963562,32.0754859 65.2811886,31.9649144 65.2811886,31.8389144 L65.2811886,25.164343 Z" id="Fill-26"></path>
            <path d="M76.0235724,23.2039716 C77.2904157,23.2039716 78.2272265,23.590543 79.0866859,24.3662573 C79.2001346,24.4656859 79.2001346,24.6148287 79.0995778,24.7142573 L78.1129184,25.7291144 C78.0235346,25.8156859 77.8851616,25.8156859 77.7957778,25.7291144 C77.3273724,25.3151144 76.7077022,25.0914001 76.0871724,25.0914001 C74.6570319,25.0914001 73.605913,26.2639716 73.605913,27.6654001 C73.605913,29.0522573 74.6690643,30.1999716 76.1000643,30.1999716 C76.6939508,30.1999716 77.3394049,29.9891144 77.7957778,29.6016859 C77.8851616,29.524543 78.0501778,29.524543 78.1240914,29.614543 L79.1141886,30.6508287 C79.2001346,30.736543 79.1881022,30.9002573 79.0995778,30.9894001 C78.2383995,31.8148287 77.1503238,32.200543 76.0235724,32.200543 C73.4916049,32.200543 71.452967,30.2128287 71.452967,27.7151144 C71.452967,25.2174001 73.4916049,23.2039716 76.0235724,23.2039716" id="Fill-28"></path>
            <path d="M82.2134854,23.5672287 C82.2134854,23.4403716 82.3252151,23.3298001 82.4524151,23.3298001 L83.9581881,23.3298001 C84.09828,23.3298001 84.1996962,23.4403716 84.1996962,23.5672287 L84.1996962,26.7138001 L87.8205989,26.7138001 L87.8205989,23.5672287 C87.8205989,23.4403716 87.9211557,23.3298001 88.0612476,23.3298001 L89.5670205,23.3298001 C89.6925016,23.3298001 89.8085286,23.4403716 89.8085286,23.5672287 L89.8085286,31.8386573 C89.8085286,31.9646573 89.6925016,32.0752287 89.5670205,32.0752287 L88.0612476,32.0752287 C87.9211557,32.0752287 87.8205989,31.9646573 87.8205989,31.8386573 L87.8205989,28.5515144 L84.1996962,28.5515144 L84.1996962,31.8386573 C84.1996962,31.9646573 84.09828,32.0752287 83.9581881,32.0752287 L82.4524151,32.0752287 C82.3252151,32.0752287 82.2134854,31.9646573 82.2134854,31.8386573 L82.2134854,23.5672287 Z" id="Fill-30"></path>
            <path d="M93.6298573,23.5672287 C93.6298573,23.4403716 93.7312735,23.3298001 93.8705059,23.3298001 L99.1114897,23.3298001 C99.2490032,23.3298001 99.3521384,23.4403716 99.3521384,23.5672287 L99.3521384,24.9283716 C99.3521384,25.0543716 99.2490032,25.1640859 99.1114897,25.1640859 L95.6048951,25.1640859 L95.6048951,26.7138001 L98.4901005,26.7138001 C98.6173005,26.7138001 98.7324681,26.8286573 98.7324681,26.9538001 L98.7324681,28.3158001 C98.7324681,28.4512287 98.6173005,28.5515144 98.4901005,28.5515144 L95.6048951,28.5515144 L95.6048951,30.2400859 L99.1114897,30.2400859 C99.2490032,30.2400859 99.3521384,30.3506573 99.3521384,30.4775144 L99.3521384,31.8386573 C99.3521384,31.9646573 99.2490032,32.0752287 99.1114897,32.0752287 L93.8705059,32.0752287 C93.7312735,32.0752287 93.6298573,31.9646573 93.6298573,31.8386573 L93.6298573,23.5672287 Z" id="Fill-32"></path>
            <path d="M102.802782,23.4316287 C102.802782,23.3064859 102.916231,23.2036287 103.042571,23.2036287 L103.358852,23.2036287 L108.411615,28.0027716 L108.423647,28.0027716 L108.423647,23.5670573 C108.423647,23.4402001 108.525063,23.3296287 108.664296,23.3296287 L110.182961,23.3296287 C110.310161,23.3296287 110.424469,23.4402001 110.424469,23.5670573 L110.424469,31.977343 C110.424469,32.1024859 110.310161,32.2002001 110.182961,32.2002001 L109.981847,32.2002001 C109.943171,32.2002001 109.840896,32.1642001 109.815971,32.139343 L104.813917,27.1782001 L104.801885,27.1782001 L104.801885,31.839343 C104.801885,31.9644859 104.701328,32.0750573 104.562096,32.0750573 L103.056323,32.0750573 C102.928263,32.0750573 102.815674,31.9644859 102.815674,31.839343 L102.802782,23.4316287 Z" id="Fill-34"></path>
        </g>
    </g>
</svg>